<?xml version="1.0" encoding="UTF-8"?>
<svg version="1.1" xmlns="http://www.w3.org/2000/svg" width="256" height="256">
<path d="M0 0 C2.73698148 1.35969958 3.88530966 2.62742059 6 5 C6.495 7.97 6.495 7.97 7 11 C34.72 11 62.44 11 91 11 C91.33 9.35 91.66 7.7 92 6 C95.26315789 1.36842105 95.26315789 1.36842105 98 0 C104.10397596 -0.50866466 107.10769166 -0.05703618 112 4 C113.35439668 6.70879335 113.06501451 9.00933268 113 12 C114.0725 12.04125 115.145 12.0825 116.25 12.125 C127.1013034 13.54372165 135.55600408 20.46262062 143 28 C143.57492188 28.55300781 144.14984375 29.10601562 144.7421875 29.67578125 C153.10129445 38.40303539 156.34812352 51.33486437 159.4375 62.6875 C159.62598511 63.37018951 159.81447021 64.05287903 160.00866699 64.7562561 C167.80768484 93.11428366 172.54327757 121.81954972 176 151 C176.1127124 151.91837646 176.2254248 152.83675293 176.34155273 153.78295898 C177.14302849 160.86374169 177.25565374 167.9415586 177.3125 175.0625 C177.34150391 176.27744141 177.37050781 177.49238281 177.40039062 178.74414062 C177.45225519 186.10491992 176.74317833 191.61268256 173 198 C172.62174072 198.65331299 172.24348145 199.30662598 171.85375977 199.97973633 C167.61537942 206.93107759 160.13565726 211.28990895 152.4453125 213.52734375 C141.47139048 215.6485012 132.91196594 213.15658821 123.5625 207.4375 C105.05112788 194.3591668 92.3046881 172.83008433 82.93359375 152.65234375 C82.63163086 152.006604 82.32966797 151.36086426 82.01855469 150.69555664 C81.25105815 149.01423416 80.52027834 147.31628049 79.79296875 145.6171875 C77.46090739 142.21308922 74.85885958 141.09817678 71 140 C67.64008802 139.58929484 64.31940897 139.57885324 60.9375 139.6015625 C59.98738037 139.59869232 59.03726074 139.59582214 58.05834961 139.59286499 C56.05809937 139.59083188 54.05782891 139.5963088 52.05761719 139.60888672 C49.00931008 139.62495094 45.96232874 139.60901214 42.9140625 139.58984375 C40.96353876 139.59182632 39.01301585 139.59567027 37.0625 139.6015625 C36.15814209 139.59548981 35.25378418 139.58941711 34.32202148 139.5831604 C28.80527753 139.64397827 24.85230847 140.29733844 20 143 C18.4232096 145.40731359 17.34975975 147.3954555 16.25 150 C15.58228396 151.44524393 14.90883429 152.88784902 14.23046875 154.328125 C13.8751709 155.08802734 13.51987305 155.84792969 13.15380859 156.63085938 C2.71087526 178.07356465 -13.01573718 203.7507198 -36 213 C-45.04157746 215.8542658 -53.89383011 214.24505363 -62.34375 210.484375 C-66.67819203 208.06218681 -70.13091083 205.20939661 -73.125 201.25 C-73.60195312 200.63640625 -74.07890625 200.0228125 -74.5703125 199.390625 C-79.07102164 191.86484906 -79.51372244 185.23081852 -79.4375 176.625 C-79.43065186 175.41255615 -79.42380371 174.2001123 -79.41674805 172.95092773 C-78.82477427 137.95796121 -71.84429413 102.71589631 -63 69 C-62.70834961 67.88061035 -62.41669922 66.7612207 -62.11621094 65.60791016 C-56.67686396 45.02651515 -50.60219867 29.0758903 -32 17 C-26.42071552 14.12380562 -21.37317554 11.64143658 -15 12 C-15.1546875 10.6696875 -15.1546875 10.6696875 -15.3125 9.3125 C-14.90194499 4.96061694 -13.28831975 3.74026646 -10 1 C-6.76247585 -0.61876208 -3.49936966 -0.57132566 0 0 Z M-12.4375 71.625 C-14.55508307 76.19897943 -14.67408461 80.04006877 -14 85 C-12.25825315 89.35436713 -9.09542631 92.69521463 -5 95 C-0.56297921 96.30407063 2.87213962 96.39041321 7.25 94.875 C11.27199907 92.13272791 14.43497325 89.69508026 16 85 C16.51549132 80.09015642 16.53143398 76.1478974 14.4375 71.625 C10.55656963 67.44553653 6.81669272 64.83817981 1 64.5 C-4.81669272 64.83817981 -8.55656963 67.44553653 -12.4375 71.625 Z M83.5625 71.625 C81.44491693 76.19897943 81.32591539 80.04006877 82 85 C83.74174685 89.35436713 86.90457369 92.69521463 91 95 C95.43702079 96.30407063 98.87213962 96.39041321 103.25 94.875 C107.27199907 92.13272791 110.43497325 89.69508026 112 85 C112.51549132 80.09015642 112.53143398 76.1478974 110.4375 71.625 C106.55656963 67.44553653 102.81669272 64.83817981 97 64.5 C91.18330728 64.83817981 87.44343037 67.44553653 83.5625 71.625 Z " fill="#81A1C1" transform="translate(79,21)"/>
</svg>
