<?xml version="1.0" encoding="UTF-8"?>
<svg version="1.1" xmlns="http://www.w3.org/2000/svg" width="256" height="256">
<path d="M0 0 C8.34352524 4.9752132 13.53547865 11.86251371 16.109375 21.2578125 C16.3046875 24.6875 16.3046875 24.6875 16.234375 28.1328125 C16.21632812 29.28523438 16.19828125 30.43765625 16.1796875 31.625 C16.15648437 32.49382813 16.13328125 33.36265625 16.109375 34.2578125 C17.90375 34.7528125 17.90375 34.7528125 19.734375 35.2578125 C28.0924002 38.03500442 36.29477862 42.90521275 43.171875 48.3828125 C45.88997273 50.59765234 45.88997273 50.59765234 48.546875 49.7578125 C49.3925 49.2628125 50.238125 48.7678125 51.109375 48.2578125 C60.45407579 44.11148831 69.22877097 43.22404957 79.109375 46.2578125 C88.243757 50.39065969 94.56542286 56.42967482 98.35546875 65.73828125 C101.00562482 74.59502044 100.78633917 83.39743148 96.953125 91.7890625 C92.83243608 99.38944429 87.16921897 103.55124986 80.109375 108.2578125 C79.71745714 110.79885839 79.52187291 113.09069145 79.46484375 115.64453125 C79.44537186 116.37976517 79.42589996 117.11499908 79.40583801 117.87251282 C79.37309079 119.43169558 79.34930424 120.99108816 79.33374023 122.55053711 C79.29722824 124.92236566 79.19147653 127.28477439 79.08398438 129.65429688 C78.71312257 137.7734138 78.71312257 137.7734138 82.2722168 144.76025391 C84.87560183 146.62731763 84.87560183 146.62731763 87.61474609 147.94458008 C93.57616861 151.08281571 97.14353684 158.04990252 99.109375 164.2578125 C100.96193726 175.28055794 99.8685915 183.53415071 93.80078125 192.96484375 C89.03170267 199.43008423 82.96359547 203.43980048 75.109375 205.2578125 C65.6701122 206.19694728 57.70229151 205.61552372 49.109375 201.2578125 C48.119375 200.9278125 47.129375 200.5978125 46.109375 200.2578125 C43.71263522 201.70246392 41.49656791 203.18706113 39.234375 204.8203125 C22.805272 216.2578125 22.805272 216.2578125 16.109375 216.2578125 C16.15578125 217.08023438 16.2021875 217.90265625 16.25 218.75 C16.58128861 228.99628353 14.95746092 237.07640232 7.8125 244.7265625 C-0.41106385 252.12022541 -9.12508135 253.83971317 -19.90234375 253.5703125 C-28.28803831 253.09598615 -35.293562 249.48311727 -40.890625 243.2578125 C-45.80586533 236.72158865 -48.18450703 230.65803174 -48.015625 222.3828125 C-47.99757813 221.23039063 -47.97953125 220.07796875 -47.9609375 218.890625 C-47.93773438 218.02179688 -47.91453125 217.15296875 -47.890625 216.2578125 C-49.7778125 215.7009375 -49.7778125 215.7009375 -51.703125 215.1328125 C-60.64244012 212.13435884 -68.2835925 207.25676835 -75.6015625 201.3828125 C-77.88136915 199.94808982 -77.88136915 199.94808982 -80.47265625 200.96875 C-81.27058594 201.39414063 -82.06851563 201.81953125 -82.890625 202.2578125 C-91.23221148 206.34991153 -100.84499858 206.59070651 -109.8671875 204.6015625 C-118.308523 201.56999929 -124.02766547 196.3846867 -128.328125 188.5703125 C-132.0023897 180.56101615 -133.09533861 172.05058825 -130.734375 163.4765625 C-126.90544395 153.40789196 -120.62823885 148.0828884 -111.890625 142.2578125 C-111.86009217 139.46711188 -111.99090868 136.89684177 -112.265625 134.1328125 C-112.76364295 128.46636086 -112.88041927 123.2660097 -112.1003418 117.62744141 C-111.67216375 114.39172103 -111.52086233 111.50644171 -111.890625 108.2578125 C-114.11450153 105.66328988 -116.24269931 104.37098262 -119.2421875 102.7578125 C-125.25665569 99.35138804 -128.85456348 92.68748046 -130.890625 86.2578125 C-132.74318726 75.23506706 -131.6498415 66.98147429 -125.58203125 57.55078125 C-120.81295267 51.08554077 -114.74484547 47.07582452 -106.890625 45.2578125 C-97.4513622 44.31867772 -89.48354151 44.90010128 -80.890625 49.2578125 C-79.900625 49.5878125 -78.910625 49.9178125 -77.890625 50.2578125 C-75.49388522 48.81316108 -73.27781791 47.32856387 -71.015625 45.6953125 C-54.586522 34.2578125 -54.586522 34.2578125 -47.890625 34.2578125 C-47.93703125 33.43539062 -47.9834375 32.61296875 -48.03125 31.765625 C-48.36253861 21.51934147 -46.73871092 13.43922268 -39.59375 5.7890625 C-28.99673947 -3.73852495 -12.95346121 -6.21592266 0 0 Z M-48.203125 97.5703125 C-56.36611158 107.860763 -58.98981443 119.33190136 -57.890625 132.2578125 C-55.61825178 143.48360834 -49.49808442 153.80791489 -39.890625 160.2578125 C-28.95997822 166.59723446 -18.26914754 169.15625282 -5.66796875 166.60546875 C5.33593963 163.29719694 14.70605057 156.85017411 20.51171875 146.83984375 C26.35830076 135.63813155 28.25366208 124.33725451 24.546875 112.0078125 C19.95822444 99.88989728 12.12195783 91.70379044 0.5 86.29296875 C-16.72529927 78.83430158 -35.63876126 84.01486663 -48.203125 97.5703125 Z " fill="#81A1C1" transform="translate(143.890625,2.7421875)"/>
</svg>
